<svg xmlns="http://www.w3.org/2000/svg" width="320" height="320" fill="#886633"><path d="M0,107C0,108,0,109,1,110C3,113,3,115,5,117C7,118,7,119,23,125C58,157,70,160,107,170C108,158,110,149,111,150C112,150,110,160,110,170C110,178,110,190,121,220C125,230,127,240,125,249C117,251,118,252,115,254C108,254,108,258,107,260C110,259,113,258,117,260L150,260C160,260,163,250,167,225C169,210,170,210,170,183C170,183,169,165,170,165C171,165,173,178,173,183C190,188,210,200,251,191C251,185,251,180,252,180C253,181,253,180,254,190C254,210,275,227,280,249C272,251,273,252,270,254C263,254,263,258,262,260C265,259,268,258,272,260L308,260C318,260,320,240,320,200C320,110,285,70,235,70C220,70,215,75,200,75C170,75,160,60,140,60C115,60,100,74,85,74C82,74,74,71,63,70C63,65,59,60,55,60C47,60,47,69,47,70C46,70,36,73,24,85C22,87,22,93,20,95C20,95,9,100,3,105C2,104,0,106,0,107zM85,167C78,185,80,190,78,210C76,230,64,250,64,250C57,251,58,252,55,254C49,254,49,258,47,260C50,259,53,258,57,260L83,260C100,260,113,222,116,214C110,200,107,182,107,173zM220,198C218,215,226,240,224,250C217,251,218,252,215,254C209,254,209,258,207,260C210,259,213,258,217,260L248,260C264,260,262,235,265,223C259,215,253,205,251,194C238,196,240,197,220,197z"/></svg>
